<svg width="150" height="150" viewBox="0 0 150 150" fill="none" xmlns="http://www.w3.org/2000/svg">
<rect width="150" height="150" rx="40" fill="#097D3F"/>
<rect width="150" height="150" rx="40" fill="#025456"/>
<path d="M118.152 94.0923C120.909 90.7114 122.862 87.072 123.928 82.995C126.343 73.6677 124.713 65.0762 119.017 57.2802C118.816 57.0018 118.212 56.8228 117.87 56.9024C115.858 57.4194 115.173 59.6071 116.2 61.5561C117.246 63.5448 118.414 65.5336 119.038 67.6616C121.735 76.7503 119.863 84.944 113.563 92.1035C112.175 93.6747 112.154 94.7685 113.644 96.2203C114.972 97.5329 116.321 98.8256 117.81 100.277C117.367 100.317 117.146 100.377 116.904 100.377C109.659 100.377 102.413 100.397 95.1679 100.377C83.3135 100.337 73.6529 93.5156 70.2113 82.6171C67.8968 75.2587 68.9031 68.2184 72.9686 61.6356C74.1158 59.7662 73.4919 57.6581 71.6 56.9421C70.9761 56.7035 70.5736 56.7632 70.1509 57.3399C65.703 63.4852 63.7105 70.3067 64.3948 77.8441C65.0992 85.4809 68.3396 91.9643 74.0353 97.155C79.731 102.366 86.5337 105.05 94.3024 105.09C103.923 105.17 113.543 105.09 123.184 105.11C124.371 105.11 125.317 104.772 125.8 103.638C126.283 102.505 125.84 101.59 125.015 100.775C122.721 98.5869 120.467 96.3595 118.152 94.0923Z" fill="white"/>
<path d="M112.125 65.4031C112.04 65.2575 111.918 65.1365 111.772 65.0519C111.626 64.9674 111.46 64.9221 111.291 64.9207H107.425C107.256 64.9221 107.09 64.9674 106.944 65.0519C106.798 65.1365 106.676 65.2575 106.59 65.4031L104.657 68.7508C104.572 68.8995 104.526 69.0681 104.526 69.2398C104.526 69.4115 104.572 69.5801 104.657 69.7288L106.59 73.0635C106.676 73.2091 106.798 73.3301 106.944 73.4147C107.09 73.4992 107.256 73.5444 107.425 73.5459H111.291C111.46 73.5444 111.626 73.4992 111.772 73.4147C111.918 73.3301 112.04 73.2091 112.125 73.0635L114.058 69.7157C114.144 69.5671 114.189 69.3984 114.189 69.2268C114.189 69.0551 114.144 68.8865 114.058 68.7378L112.125 65.4031ZM110.988 69.2333C110.988 69.5556 110.892 69.8708 110.713 70.1388C110.534 70.4068 110.279 70.6157 109.982 70.7391C109.684 70.8625 109.356 70.8947 109.04 70.8318C108.724 70.769 108.433 70.6137 108.205 70.3858C107.977 70.1578 107.822 69.8674 107.759 69.5513C107.696 69.2351 107.729 68.9074 107.852 68.6096C107.975 68.3117 108.184 68.0572 108.452 67.8781C108.72 67.699 109.036 67.6034 109.358 67.6034C109.79 67.6034 110.205 67.7751 110.51 68.0808C110.816 68.3865 110.988 68.801 110.988 69.2333Z" fill="#01DC82"/>
<path d="M83.6728 65.3457C83.5872 65.2001 83.4654 65.0791 83.3191 64.9945C83.1729 64.91 83.0072 64.8648 82.8383 64.8633H78.9723C78.8033 64.8648 78.6377 64.91 78.4915 64.9945C78.3452 65.0791 78.2234 65.2001 78.1378 65.3457L76.2047 68.6935C76.1189 68.8421 76.0737 69.0108 76.0737 69.1824C76.0737 69.3541 76.1189 69.5227 76.2047 69.6714L78.1378 73.0061C78.2234 73.1518 78.3452 73.2727 78.4915 73.3573C78.6377 73.4418 78.8033 73.4871 78.9723 73.4886H82.8383C83.0072 73.4871 83.1729 73.4418 83.3191 73.3573C83.4654 73.2727 83.5872 73.1518 83.6728 73.0061L85.6058 69.6584C85.6917 69.5097 85.7369 69.3411 85.7369 69.1694C85.7369 68.9977 85.6917 68.8291 85.6058 68.6804L83.6728 65.3457ZM82.5352 69.1759C82.5352 69.4983 82.4396 69.8134 82.2605 70.0814C82.0814 70.3495 81.8268 70.5584 81.529 70.6817C81.2312 70.8051 80.9035 70.8374 80.5873 70.7745C80.2712 70.7116 79.9807 70.5564 79.7528 70.3284C79.5249 70.1005 79.3696 69.8101 79.3067 69.4939C79.2439 69.1777 79.2761 68.85 79.3995 68.5522C79.5229 68.2544 79.7318 67.9998 79.9998 67.8207C80.2678 67.6416 80.5829 67.546 80.9053 67.546C81.3376 67.546 81.7521 67.7178 82.0578 68.0234C82.3634 68.3291 82.5352 68.7436 82.5352 69.1759Z" fill="#01DC82"/>
<path d="M71.6657 48.5629C73.7601 48.9641 75.8545 49.4054 77.969 49.7664C78.4121 49.8467 78.9759 49.8065 79.3384 49.606C90.0319 43.4682 100.725 43.4682 111.439 49.5859C111.822 49.8065 112.365 49.8266 112.808 49.7865C115.326 49.4656 117.843 49.0443 120.36 48.7836C121.488 48.6632 122.273 49.3853 122.636 50.4083C122.978 51.4112 122.696 52.3138 121.891 52.9156C121.428 53.2565 120.723 53.4371 120.139 53.4772C115.024 53.6577 110.372 55.1621 106.364 58.3914C101.007 62.7039 98.1477 68.3001 97.8053 75.1801C97.7248 76.7245 96.7783 77.7475 95.4089 77.7475C94.0596 77.7475 93.0527 76.7847 93.0124 75.3004C92.7304 63.9074 83.4668 53.7781 70.7998 53.4772C70.3769 53.4571 69.9137 53.4371 69.5109 53.2766C68.5241 52.9156 67.8998 51.8124 68.0408 50.7894C68.1818 49.7263 69.1283 48.8438 70.2157 48.7635C70.6789 48.7234 71.1622 48.7635 71.6254 48.7635C71.6456 48.7034 71.6657 48.6231 71.6657 48.5629ZM95.4089 64.7699C97.906 59.4545 101.632 55.4228 106.666 52.3539C99.074 48.9842 91.7235 48.9641 84.1918 52.374C89.2062 55.4228 92.8916 59.4746 95.4089 64.7699Z" fill="white"/>
<rect x="48.6948" y="57.3474" width="18.2526" height="3.22105" rx="1.61053" fill="#01DC82"/>
<rect x="52.4526" y="86.8738" width="11.8105" height="3.22105" rx="1.61053" fill="#01DC82"/>
<rect x="47.0842" y="80.9685" width="15.5684" height="3.22105" rx="1.61053" fill="#01DC82"/>
<rect x="56.2104" y="92.7791" width="11.8105" height="3.22105" rx="1.61053" fill="#01DC82"/>
<rect x="48.158" y="69.158" width="13.9579" height="3.22105" rx="1.61053" fill="#01DC82"/>
<rect x="24" y="69.158" width="12.3474" height="3.22105" rx="1.61053" fill="#01DC82"/>
<rect x="44.9368" y="63.2527" width="19.3263" height="3.22105" rx="1.61053" fill="#01DC82"/>
<rect x="48.6948" y="98.6843" width="24.6947" height="3.22105" rx="1.61053" fill="#01DC82"/>
<rect x="39.5684" y="75.0635" width="22.0105" height="3.22105" rx="1.61053" fill="#01DC82"/>
<rect x="36.3474" y="57.3474" width="10.7368" height="3.22105" rx="1.61053" fill="#01DC82"/>
<rect x="32.0527" y="86.8738" width="18.7895" height="3.22105" rx="1.61053" fill="#01DC82"/>
<rect x="36.3474" y="80.9685" width="9.12632" height="3.22105" rx="1.61053" fill="#01DC82"/>
<rect x="47.6211" y="92.7791" width="6.97895" height="3.22105" rx="1.61053" fill="#01DC82"/>
<rect x="37.958" y="69.158" width="8.58947" height="3.22105" rx="1.61053" fill="#01DC82"/>
</svg>
